# 3ds Max Wavefront OBJ Exporter v0.97b - (c)2007 guruware
# File Created: 30.09.2017 19:40:03

mtllib tower.mtl

#
# object Model
#

v  -13.2720 3.5562 0.0000
v  -11.8993 -6.8701 0.0000
v  -13.2720 -3.5562 0.0000
v  -13.7402 0.0000 0.0000
v  -11.8993 6.8701 0.0000
v  -9.7158 -9.7158 0.0000
v  -9.5832 2.5678 35.1181
v  -8.5921 4.9606 35.1181
v  -9.9213 0.0000 35.1181
v  -9.5832 -2.5678 35.1181
v  -8.5921 -4.9606 35.1181
v  -7.0154 -7.0154 35.1181
v  -9.7158 9.7158 0.0000
v  -6.8701 -11.8993 0.0000
v  -7.0154 7.0154 35.1181
v  -8.5921 4.9606 50.3543
v  -7.0154 7.0154 50.3543
v  -9.0876 3.7642 46.8110
v  -9.5832 2.5678 46.8110
v  -9.9213 0.0000 46.8110
v  -9.9213 0.0000 50.3543
v  -9.5832 -2.5678 50.3543
v  -9.0876 -3.7642 46.8110
v  -8.5921 -4.9606 46.8110
v  -7.0154 -7.0154 46.8110
v  -4.9606 -8.5921 35.1181
v  -4.9606 -8.5921 50.3543
v  -6.8701 11.8993 0.0000
v  -3.5562 -13.2720 0.0000
v  -4.9606 8.5921 35.1181
v  -7.0154 7.0154 46.8110
v  -4.9606 8.5921 46.8110
v  -5.0110 5.0110 46.8110
v  -5.0110 -5.0110 46.8110
v  -6.1372 3.5433 46.8110
v  -6.4912 2.6887 46.8110
v  -6.4912 -2.6887 46.8110
v  -6.4912 -2.6887 50.3543
v  -9.0876 -3.7642 50.3543
v  -6.8451 -1.8342 50.3543
v  -7.0866 -0.0000 50.3543
v  -7.0866 -0.0000 46.8110
v  -6.8451 -1.8342 46.8110
v  -6.4912 2.6887 50.3543
v  -9.0876 3.7642 50.3543
v  -6.1372 3.5433 50.3543
v  -5.0110 5.0110 50.3543
v  -7.0154 -7.0154 50.3543
v  -5.0110 -5.0110 50.3543
v  -3.5433 -6.1372 50.3543
v  -3.7642 -9.0876 50.3543
v  -2.6887 -6.4912 50.3543
v  -3.7642 -9.0876 46.8110
v  -2.5678 -9.5832 35.1181
v  -2.5678 -9.5832 46.8110
v  -3.5562 13.2720 0.0000
v  -0.0000 -13.7402 0.0000
v  -2.5678 9.5832 35.1181
v  -3.7642 9.0876 46.8110
v  -3.5433 -6.1372 46.8110
v  -2.6887 -6.4912 46.8110
v  -2.6887 6.4912 46.8110
v  -0.0000 -9.9213 46.8110
v  -1.8342 6.8451 46.8110
v  -0.0000 -9.9213 35.1181
v  0.0000 13.7402 0.0000
v  3.5562 -13.2720 0.0000
v  0.0000 9.9213 35.1181
v  -2.5678 9.5832 50.3543
v  0.0000 9.9213 46.8110
v  0.0000 9.9213 50.3543
v  -2.6887 6.4912 50.3543
v  -1.8342 6.8451 50.3543
v  -3.7642 9.0876 50.3543
v  -0.0000 7.0866 46.8110
v  -0.0000 7.0866 50.3543
v  0.0000 -7.0866 46.8110
v  -0.0000 -9.9213 50.3543
v  0.0000 -7.0866 50.3543
v  2.5678 -9.5832 50.3543
v  2.5678 -9.5832 35.1181
v  3.5562 13.2720 0.0000
v  6.8701 -11.8993 0.0000
v  2.5678 9.5832 35.1181
v  2.5678 9.5832 46.8110
v  1.8342 -6.8451 46.8110
v  1.8342 -6.8451 50.3543
v  3.7642 -9.0876 50.3543
v  2.6887 -6.4912 50.3543
v  3.7642 -9.0876 46.8110
v  4.9606 -8.5921 35.1181
v  4.9606 -8.5921 46.8110
v  6.8701 11.8993 0.0000
v  9.7158 -9.7158 0.0000
v  4.9606 8.5921 35.1181
v  3.7642 9.0876 46.8110
v  2.6887 -6.4912 46.8110
v  2.6887 6.4912 46.8110
v  3.5433 6.1372 46.8110
v  5.0110 5.0110 46.8110
v  7.0154 -7.0154 46.8110
v  5.0110 -5.0110 46.8110
v  7.0154 -7.0154 35.1181
v  9.7158 9.7158 0.0000
v  11.8993 -6.8701 0.0000
v  7.0154 7.0154 35.1181
v  4.9606 8.5921 50.3543
v  7.0154 7.0154 46.8110
v  7.0154 7.0154 50.3543
v  3.7642 9.0876 50.3543
v  5.0110 5.0110 50.3543
v  2.6887 6.4912 50.3543
v  3.5433 6.1372 50.3543
v  6.4912 2.6887 46.8110
v  6.1372 -3.5433 46.8110
v  6.4912 -2.6887 46.8110
v  5.0110 -5.0110 50.3543
v  6.1372 -3.5433 50.3543
v  7.0154 -7.0154 50.3543
v  8.5921 -4.9606 35.1181
v  11.8993 6.8701 0.0000
v  13.2720 -3.5562 0.0000
v  8.5921 4.9606 35.1181
v  8.5921 4.9606 46.8110
v  9.0876 3.7642 46.8110
v  6.4912 2.6887 50.3543
v  9.0876 3.7642 50.3543
v  6.8451 1.8342 50.3543
v  7.0866 -0.0000 50.3543
v  6.8451 1.8342 46.8110
v  7.0866 -0.0000 46.8110
v  9.0876 -3.7642 46.8110
v  9.9213 0.0000 46.8110
v  6.4912 -2.6887 50.3543
v  9.0876 -3.7642 50.3543
v  8.5921 -4.9606 50.3543
v  9.5832 -2.5678 35.1181
v  9.5832 -2.5678 46.8110
v  9.9213 0.0000 35.1181
v  9.5832 2.5678 35.1181
v  9.9213 0.0000 50.3543
v  9.5832 2.5678 50.3543
v  13.2720 3.5562 0.0000
v  13.7402 0.0000 0.0000
# 144 vertices

vn 0.0000 0.0000 -1.0000
vn -0.9186 0.3805 0.1072
vn -0.9857 0.1298 0.1072
vn -0.9857 -0.1298 0.1072
vn -0.9186 -0.3805 0.1072
vn -0.7888 -0.6053 0.1072
vn -0.7888 0.6053 0.1072
vn -0.7934 0.6088 0.0000
vn -0.9239 0.3827 -0.0000
vn -0.9239 0.3827 0.0000
vn -0.9914 0.1305 0.0000
vn -0.9914 -0.1305 0.0000
vn -0.9239 -0.3827 -0.0000
vn -0.9239 -0.3827 0.0000
vn -0.7934 -0.6088 0.0000
vn -0.6088 -0.7934 0.0000
vn -0.6053 -0.7888 0.1072
vn -0.6053 0.7888 0.1072
vn -0.6088 0.7934 0.0000
vn 0.0000 0.0000 1.0000
vn 0.3827 -0.9239 0.0000
vn 0.0000 1.0000 0.0000
vn 0.9914 0.1305 0.0000
vn 0.9239 0.3827 0.0000
vn -0.3827 -0.9239 0.0000
vn 0.9239 -0.3827 0.0000
vn 0.7934 -0.6088 0.0000
vn 0.7071 0.7071 0.0000
vn -0.7071 0.7071 0.0000
vn -0.3827 -0.9239 -0.0000
vn -0.3805 -0.9186 0.1072
vn -0.3805 0.9186 0.1072
vn -0.3827 0.9239 -0.0000
vn -0.3827 0.9239 0.0000
vn 0.6088 0.7934 0.0000
vn 0.3827 0.9239 0.0000
vn -0.1305 -0.9914 0.0000
vn -0.1298 -0.9857 0.1072
vn -0.1298 0.9857 0.1072
vn -0.1305 0.9914 0.0000
vn 0.1305 -0.9914 0.0000
vn -1.0000 0.0000 0.0000
vn 0.1298 -0.9857 0.1072
vn 0.1298 0.9857 0.1072
vn 0.1305 0.9914 0.0000
vn 1.0000 -0.0000 0.0000
vn 0.3827 -0.9239 -0.0000
vn 0.3805 -0.9186 0.1072
vn 0.3805 0.9186 0.1072
vn 0.3827 0.9239 -0.0000
vn 0.6088 -0.7934 0.0000
vn 0.6053 -0.7888 0.1072
vn 0.6053 0.7888 0.1072
vn 0.7071 -0.7071 0.0000
vn -0.7071 -0.7071 0.0000
vn 0.7888 -0.6053 0.1072
vn 0.7888 0.6053 0.1072
vn 0.7934 0.6088 0.0000
vn 0.9239 -0.3827 -0.0000
vn 0.9914 -0.1305 0.0000
vn 0.9914 0.1305 -0.0000
vn 0.9239 0.3827 -0.0000
vn 0.0000 -1.0000 0.0000
vn 0.9186 0.3805 0.1072
vn 0.9186 -0.3805 0.1072
vn 0.9857 -0.1298 0.1072
vn 0.9857 0.1298 0.1072
# 67 vertex normals

vt 13.2720 3.5562 0.0000
vt 11.8993 -6.8701 0.0000
vt 13.2720 -3.5562 0.0000
vt 13.7402 0.0000 0.0000
vt 11.8993 6.8701 0.0000
vt 9.7158 -9.7158 0.0000
vt 1.7935 -1.4602 0.0000
vt 1.2950 33.8614 0.0000
vt -1.2950 33.8614 0.0000
vt -1.7935 -1.4602 0.0000
vt 9.7158 9.7158 0.0000
vt 6.8701 -11.8993 0.0000
vt 1.2950 35.1181 0.0000
vt 1.2950 50.3543 0.0000
vt -1.2950 50.3543 0.0000
vt -1.2950 35.1181 0.0000
vt 0.0000 46.8110 0.0000
vt 1.2950 46.8110 0.0000
vt -1.2950 46.8110 0.0000
vt 6.8701 11.8993 0.0000
vt 3.5562 -13.2720 0.0000
vt -5.0110 5.0110 0.0000
vt -5.0110 -5.0110 0.0000
vt -4.9606 8.5921 0.0000
vt -7.0154 7.0154 0.0000
vt -6.1372 3.5433 0.0000
vt -6.4912 2.6887 0.0000
vt -6.4912 -2.6887 0.0000
vt -7.0154 -7.0154 0.0000
vt -9.0876 -3.7642 0.0000
vt -8.5921 -4.9606 0.0000
vt -7.0260 50.3543 0.0000
vt -9.8364 50.3543 0.0000
vt -9.8364 46.8110 0.0000
vt -7.0260 46.8110 0.0000
vt -6.8451 -1.8342 0.0000
vt -7.0866 -0.0000 0.0000
vt -9.9213 0.0000 0.0000
vt -9.5832 -2.5678 0.0000
vt 7.0866 46.8110 0.0000
vt 9.9213 46.8110 0.0000
vt 9.9213 50.3543 0.0000
vt 7.0866 50.3543 0.0000
vt -9.0876 3.7642 0.0000
vt -9.5832 2.5678 0.0000
vt 0.9250 46.8110 0.0000
vt 0.9250 50.3543 0.0000
vt -0.9250 50.3543 0.0000
vt -0.9250 46.8110 0.0000
vt 0.0000 50.3543 0.0000
vt -8.5921 4.9606 0.0000
vt -4.9606 -8.5921 0.0000
vt -3.5433 -6.1372 0.0000
vt -3.7642 -9.0876 0.0000
vt -2.6887 -6.4912 0.0000
vt 3.5562 13.2720 0.0000
vt 0.0000 -13.7402 0.0000
vt -3.7642 9.0876 0.0000
vt -0.0000 50.3543 0.0000
vt -0.0000 46.8110 0.0000
vt -2.5678 -9.5832 0.0000
vt -2.6887 6.4912 0.0000
vt -0.0000 -9.9213 0.0000
vt -1.8342 6.8451 0.0000
vt -0.0000 13.7402 0.0000
vt -3.5562 -13.2720 0.0000
vt -2.5678 9.5832 0.0000
vt 0.0000 9.9213 0.0000
vt -0.0000 7.0866 0.0000
vt 0.0000 -7.0866 0.0000
vt -3.5562 13.2720 0.0000
vt -6.8701 -11.8993 0.0000
vt 1.8342 -6.8451 0.0000
vt 2.5678 9.5832 0.0000
vt 2.5678 -9.5832 0.0000
vt 3.7642 -9.0876 0.0000
vt 2.6887 -6.4912 0.0000
vt -6.8701 11.8993 0.0000
vt -9.7158 -9.7158 0.0000
vt 2.6887 6.4912 0.0000
vt 3.7642 9.0876 0.0000
vt 3.5433 6.1372 0.0000
vt 4.9606 -8.5921 0.0000
vt 5.0110 5.0110 0.0000
vt 7.0154 -7.0154 0.0000
vt 5.0110 -5.0110 0.0000
vt -9.7158 9.7158 0.0000
vt -11.8993 -6.8701 0.0000
vt 4.9606 8.5921 0.0000
vt 7.0154 7.0154 0.0000
vt 6.4912 2.6887 0.0000
vt 6.1372 -3.5433 0.0000
vt 6.4912 -2.6887 0.0000
vt -11.8993 6.8701 0.0000
vt -13.2720 -3.5562 0.0000
vt 9.0876 3.7642 0.0000
vt 8.5921 4.9606 0.0000
vt 6.8451 1.8342 0.0000
vt 7.0866 -0.0000 0.0000
vt 9.0876 -3.7642 0.0000
vt 9.9213 0.0000 0.0000
vt 8.5921 -4.9606 0.0000
vt 9.5832 2.5678 0.0000
vt 9.5832 -2.5678 0.0000
vt -13.2720 3.5562 0.0000
vt -13.7402 0.0000 0.0000
# 106 texture coords

g Model
usemtl FrontCol
s off
f 1/1/1 2/2/1 3/3/1 4/4/1 
f 2/2/1 1/1/1 5/5/1 6/6/1 
s 1
f 1/7/2 7/8/2 8/9/2 5/10/2 
f 4/7/3 9/8/3 7/9/3 1/10/3 
f 4/10/4 3/7/4 10/8/4 9/9/4 
f 3/10/5 2/7/5 11/8/5 10/9/5 
f 2/10/6 6/7/6 12/8/6 11/9/6 
s off
f 6/6/1 5/5/1 13/11/1 14/12/1 
s 1
f 5/7/7 8/8/7 15/9/7 13/10/7 
s 2
f 8/13/8 16/14/8 17/15/8 15/16/8 
f 8/16/9 7/13/9 18/17/9 16/15/10 
f 18/17/9 7/13/9 19/18/10 
s 6
f 7/16/11 9/13/11 20/18/11 19/19/11 
s off
f 9/16/12 21/15/12 20/19/12 
s 2
f 10/13/12 22/14/12 21/15/12 9/16/12 
f 10/16/13 11/13/13 23/17/13 22/15/14 
f 23/17/13 11/13/13 24/18/14 
f 12/13/15 25/18/15 24/19/15 11/16/15 
f 12/16/16 26/13/16 27/14/16 25/19/16 
s 1
f 6/10/17 14/7/17 26/8/17 12/9/17 
s off
f 14/12/1 13/11/1 28/20/1 29/21/1 
s 1
f 15/8/18 30/9/18 28/10/18 13/7/18 
s 6
f 31/18/19 32/19/19 30/16/19 15/13/19 
s off
f 33/22/20 34/23/20 32/24/20 31/25/20 
f 35/26/20 36/27/20 34/23/20 33/22/20 
f 37/28/20 25/29/20 34/23/20 36/27/20 
f 37/28/20 23/30/20 24/31/20 25/29/20 
f 38/32/21 39/33/21 23/34/21 37/35/21 
f 40/36/20 41/37/20 39/30/20 38/28/20 
f 41/37/20 21/38/20 22/39/20 39/30/20 
f 42/40/22 20/41/22 21/42/22 41/43/22 
f 42/37/20 18/44/20 19/45/20 20/38/20 
f 18/44/20 42/37/20 43/36/20 36/27/20 
s 1
f 42/46/23 41/47/23 40/48/23 43/49/23 
f 38/50/24 37/17/24 43/46/24 40/47/24 
s off
f 36/27/20 43/36/20 37/28/20 
f 44/32/25 45/33/25 18/34/25 36/35/25 
f 44/27/20 17/25/20 16/51/20 45/44/20 
f 17/25/20 44/27/20 46/26/20 47/22/20 
s 1
f 44/50/26 36/17/26 35/46/26 46/47/26 
f 33/46/27 47/47/27 46/48/27 35/49/27 
s off
f 31/41/28 17/42/28 47/43/28 33/40/28 
f 15/16/8 17/15/8 31/19/8 
s 2
f 16/15/10 18/17/9 45/50/10 
f 22/15/14 23/17/13 39/50/14 
s off
f 48/42/29 49/43/29 34/40/29 25/41/29 
f 27/52/20 50/53/20 49/23/20 48/29/20 
f 50/53/20 27/52/20 51/54/20 52/55/20 
s 3
f 27/15/25 26/16/30 53/17/30 51/50/25 
f 26/16/30 54/13/25 55/18/30 53/17/30 
s 1
f 14/10/31 29/7/31 54/8/31 26/9/31 
s off
f 29/21/1 28/20/1 56/56/1 57/57/1 
s 1
f 30/8/32 58/9/32 56/10/32 28/7/32 
s 2
f 32/18/33 59/17/33 58/16/33 30/13/34 
s off
f 32/24/20 34/23/20 60/53/20 59/58/20 
s 1
f 49/47/35 50/48/35 60/49/35 34/46/35 
f 50/47/36 52/59/36 61/60/36 60/46/36 
s off
f 51/33/26 53/34/26 61/35/26 52/32/26 
f 55/61/20 62/62/20 61/55/20 53/54/20 
f 62/62/20 55/61/20 63/63/20 64/64/20 
s 2
f 54/16/37 65/13/37 63/18/37 55/19/37 
s 1
f 29/10/38 57/7/38 65/8/38 54/9/38 
s off
f 57/57/1 56/56/1 66/65/1 67/66/1 
s 1
f 58/8/39 68/9/39 66/10/39 56/7/39 
s 2
f 69/14/40 70/19/40 68/16/40 58/13/40 
f 70/19/40 69/14/40 71/15/40 
s off
f 69/67/20 72/62/20 73/64/20 71/68/20 
f 72/62/20 69/67/20 74/58/20 
s 3
f 69/15/34 58/16/33 59/17/33 74/50/34 
s off
f 62/35/14 72/32/14 74/33/14 59/34/14 
s 1
f 62/17/21 64/46/21 73/47/21 72/50/21 
f 64/49/41 75/46/41 76/47/41 73/48/41 
s off
f 64/64/20 63/63/20 75/69/20 
f 75/69/20 63/63/20 77/70/20 
f 63/41/42 78/42/42 79/43/42 77/40/42 
s 3
f 63/19/41 65/16/41 80/14/41 78/15/41 
s 2
f 80/14/41 65/16/41 81/13/41 
s 1
f 57/10/43 67/7/43 81/8/43 65/9/43 
s off
f 67/66/1 66/65/1 82/71/1 83/72/1 
s 3
f 68/8/44 84/9/44 82/10/44 66/7/44 
s 1
f 70/18/45 85/19/45 84/16/45 68/13/45 
s off
f 70/68/20 77/70/20 86/73/20 85/74/20 
f 75/69/20 77/70/20 70/68/20 
f 70/41/46 71/42/46 76/43/46 75/40/46 
f 71/68/20 73/64/20 76/69/20 
s 1
f 79/47/40 87/48/40 86/49/40 77/46/40 
s off
f 79/70/20 78/63/20 80/75/20 87/73/20 
f 87/73/20 80/75/20 88/76/20 89/77/20 
s 3
f 80/15/21 81/16/47 90/17/47 88/50/21 
f 81/16/47 91/13/21 92/18/47 90/17/47 
s 1
f 67/10/48 83/7/48 91/8/48 81/9/48 
s off
f 83/72/1 82/71/1 93/78/1 94/79/1 
s 2
f 84/8/49 95/9/49 93/10/49 82/7/49 
s 1
f 85/18/50 96/60/50 95/16/50 84/13/36 
s off
f 85/74/20 97/77/20 98/80/20 96/81/20 
f 85/74/20 86/73/20 97/77/20 
s 1
f 87/47/34 89/50/34 97/17/34 86/46/34 
s off
f 88/33/24 90/34/24 97/35/24 89/32/24 
f 90/76/20 99/82/20 98/80/20 97/77/20 
f 99/82/20 90/76/20 92/83/20 100/84/20 
f 100/84/20 92/83/20 101/85/20 102/86/20 
s 2
f 91/16/51 103/13/51 101/18/51 92/19/51 
s 1
f 83/10/52 94/7/52 103/8/52 91/9/52 
s off
f 94/79/1 93/78/1 104/87/1 105/88/1 
s 2
f 95/8/53 106/9/53 104/10/53 93/7/53 
s 1
f 107/14/35 108/19/35 106/16/35 95/13/35 
f 108/19/35 107/14/35 109/15/35 
s off
f 107/89/20 110/81/20 111/84/20 109/90/20 
f 110/81/20 112/80/20 113/82/20 111/84/20 
f 110/33/10 96/34/10 98/35/10 112/32/10 
s 1
f 107/15/36 95/16/50 96/60/50 110/59/36 
f 98/17/25 99/46/25 113/47/25 112/50/25 
f 99/49/16 100/46/16 111/47/16 113/48/16 
s off
f 100/40/54 108/41/54 109/42/54 111/43/54 
f 102/86/20 114/91/20 108/90/20 100/84/20 
f 114/91/20 102/86/20 115/92/20 116/93/20 
s 1
f 102/46/8 117/47/8 118/48/8 115/49/8 
s off
f 101/41/55 119/42/55 117/43/55 102/40/55 
s 3
f 101/19/27 103/16/27 120/13/27 119/15/27 
s 5
f 103/9/56 94/10/56 105/7/56 120/8/56 
s off
f 105/88/1 104/87/1 121/94/1 122/95/1 
s 2
f 106/8/57 123/9/57 121/10/57 104/7/57 
s 7
f 106/13/58 108/18/58 124/19/58 123/16/58 
s off
f 108/90/20 114/91/20 125/96/20 124/97/20 
f 126/32/34 127/33/34 125/34/34 114/35/34 
f 128/98/20 129/99/20 127/96/20 126/91/20 
s 1
f 128/48/12 130/49/12 131/46/12 129/47/12 
f 126/50/14 114/17/14 130/46/14 128/47/14 
s off
f 114/91/20 116/93/20 131/99/20 130/98/20 
f 131/99/20 116/93/20 132/100/20 133/101/20 
f 134/32/36 135/33/36 132/34/36 116/35/36 
f 134/93/20 118/92/20 119/85/20 135/100/20 
f 119/85/20 118/92/20 117/86/20 
s 1
f 134/59/10 116/60/10 115/46/10 118/47/10 
s off
f 135/100/20 119/85/20 136/102/20 
s 1
f 119/15/27 120/13/27 136/14/27 
f 137/13/59 132/17/59 136/15/59 120/16/26 
f 132/17/59 137/13/59 138/18/26 
f 139/13/60 133/18/60 138/19/60 137/16/60 
f 140/13/61 141/15/23 133/19/61 139/16/61 
f 141/15/23 140/13/61 142/14/23 
f 123/13/62 125/17/62 142/15/62 140/16/24 
f 125/17/62 123/13/62 124/18/24 
f 127/50/24 142/15/62 125/17/62 
s off
f 127/96/20 129/99/20 141/101/20 142/103/20 
f 131/40/63 133/41/63 141/42/63 129/43/63 
f 133/101/20 132/100/20 138/104/20 
s 2
f 143/10/64 121/7/64 123/8/64 140/9/64 
s off
f 122/95/1 121/94/1 143/105/1 144/106/1 
s 6
f 122/7/65 137/8/65 120/9/65 105/10/65 
s 2
f 144/7/66 139/8/66 137/9/66 122/10/66 
f 143/7/67 140/8/67 139/9/67 144/10/67 
s 1
f 135/50/26 136/15/59 132/17/59 
s off
f 59/58/20 60/53/20 61/55/20 62/62/20 
s 2
f 25/19/16 27/14/16 48/15/16 
# 129 polygons - 26 triangles

